<?xml version="1.0" standalone="no"?>
<!DOCTYPE svg PUBLIC "-//W3C//DTD SVG 20010904//EN"
 "http://www.w3.org/TR/2001/REC-SVG-20010904/DTD/svg10.dtd">
<svg version="1.0" xmlns="http://www.w3.org/2000/svg"
 width="512.000000pt" height="512.000000pt" viewBox="0 0 512.000000 512.000000"
 preserveAspectRatio="xMidYMid meet">

<g transform="translate(0.000000,512.000000) scale(0.100000,-0.100000)"
fill="#FFF" stroke="none">
<path d="M2489 5102 c-50 -26 -822 -724 -904 -818 -172 -197 -301 -466 -368
-764 -21 -94 -21 -105 -24 -1807 l-3 -1713 1370 0 1370 0 -3 1713 -3 1712 -22
99 c-64 293 -189 551 -366 758 -78 91 -854 794 -905 820 -19 10 -51 18 -71 18
-20 0 -52 -8 -71 -18z m-19 -827 l0 -585 -23 0 c-16 0 -106 84 -321 299 l-300
300 54 48 c30 26 173 155 318 286 145 130 266 237 268 237 2 0 4 -263 4 -585z
m523 285 l306 -275 -297 -297 c-246 -247 -302 -298 -324 -298 l-28 0 0 586 c0
575 0 586 19 573 11 -8 157 -138 324 -289z m-986 -692 l293 -293 0 -197 0
-198 -243 0 -242 0 -204 204 -203 204 27 83 c31 94 97 236 147 319 43 71 117
170 126 170 4 0 139 -132 299 -292z m1478 202 c72 -102 157 -270 196 -389 l31
-93 -203 -204 -204 -204 -242 0 -243 0 0 192 0 193 297 297 c163 163 300 295
304 292 5 -2 33 -40 64 -84z m-835 -783 l0 -234 26 -24 26 -24 274 -3 274 -3
0 -85 0 -84 -275 0 -276 0 -24 -25 -25 -24 0 -576 0 -575 -90 0 -90 0 0 575 0
576 -25 24 -24 25 -276 0 -275 0 0 84 0 85 274 3 274 3 26 24 26 24 0 234 0
233 90 0 90 0 0 -233z m-948 -404 c4 -235 -19 -217 279 -223 l230 -5 -172
-225 c-95 -124 -174 -227 -176 -230 -2 -2 -116 108 -253 245 l-250 250 0 305
c0 168 3 322 7 343 l6 39 163 -163 163 -163 3 -173z m2057 127 l1 -315 -250
-250 c-237 -237 -251 -249 -264 -230 -8 11 -87 115 -175 230 l-161 210 230 5
c297 6 274 -12 278 223 l3 172 162 163 c157 157 162 162 168 135 4 -16 7 -170
8 -343z m-1461 -1070 l-3 -180 -157 157 -156 158 156 204 157 204 3 -182 c1
-99 1 -262 0 -361z m588 463 c33 -43 103 -135 156 -204 l97 -126 -160 -159
-159 -159 0 363 c0 199 2 362 3 362 2 0 31 -35 63 -77z m-1140 -350 c-4 -10
-356 -475 -377 -498 -5 -5 -9 182 -9 445 l0 455 195 -195 c107 -107 193 -200
191 -207z m2012 -279 l-3 -225 -185 242 c-102 133 -189 249 -194 257 -6 11 39
62 185 208 l194 194 3 -225 c1 -124 1 -326 0 -451z m-1679 -38 c106 -106 192
-198 190 -203 -2 -5 -206 -274 -454 -597 l-450 -588 -3 456 -2 456 256 335
c141 184 259 335 263 335 3 0 93 -87 200 -194z m1425 -141 l256 -335 -2 -456
-3 -456 -450 588 c-247 323 -452 592 -454 597 -3 9 378 397 390 397 4 0 122
-151 263 -335z m-1034 -780 l0 -645 -511 0 c-405 0 -509 3 -503 12 5 7 226
298 492 646 344 450 489 632 503 632 19 0 19 -15 19 -645z m702 13 c266 -348
487 -639 492 -645 6 -10 -98 -13 -503 -13 l-511 0 0 645 c0 630 0 645 19 645
14 0 159 -182 503 -632z"/>
</g>
</svg>
