<svg width="209" height="105" viewBox="0 0 209 105" fill="none" xmlns="http://www.w3.org/2000/svg">
<path d="M25.7563 1.5387C20.9684 1.5387 17.054 5.09878 16.6426 9.6272H9.72044C4.66737 9.6272 0.571045 13.6022 0.571045 18.5056V79.0746C0.571045 83.978 4.66737 87.953 9.72044 87.953H198.83C203.883 87.953 207.979 83.978 207.979 79.0746V18.5056C207.979 13.6022 203.883 9.6272 198.83 9.6272H46.8847C46.473 5.08585 42.5443 1.5387 37.771 1.5387H25.7563Z" fill="#364738"/>
<path d="M25.7563 1.5387C20.9684 1.5387 17.054 5.09878 16.6426 9.6272H9.72044C4.66737 9.6272 0.571045 13.6022 0.571045 18.5056V79.0746C0.571045 83.978 4.66737 87.953 9.72044 87.953H198.83C203.883 87.953 207.979 83.978 207.979 79.0746V18.5056C207.979 13.6022 203.883 9.6272 198.83 9.6272H46.8847C46.473 5.08585 42.5443 1.5387 37.771 1.5387H25.7563Z" fill="black" fill-opacity="0.15"/>
<path d="M25.7563 1.5387C20.9684 1.5387 17.054 5.09878 16.6426 9.6272H9.72044C4.66737 9.6272 0.571045 13.6022 0.571045 18.5056V79.0746C0.571045 83.978 4.66737 87.953 9.72044 87.953H198.83C203.883 87.953 207.979 83.978 207.979 79.0746V18.5056C207.979 13.6022 203.883 9.6272 198.83 9.6272H46.8847C46.473 5.08585 42.5443 1.5387 37.771 1.5387H25.7563Z" stroke="black" stroke-width="1.14208" stroke-miterlimit="10"/>
<path d="M186.074 -9.59407e-06L14.9587 12.3129L18.507 60.8112L189.623 48.4983L186.074 -9.59407e-06Z" fill="#61B1DD"/>
<path d="M187.387 6.27988L15.947 12.7816L17.8207 61.3719L189.261 54.8702L187.387 6.27988Z" fill="#BCBF4E"/>
<path d="M188.511 13.1202L16.9457 13.5063L17.0569 62.132L188.622 61.7459L188.511 13.1202Z" fill="#3BA34D"/>
<path d="M199.026 18.1107H9.52368C4.57928 18.1107 0.571045 22.0856 0.571045 26.9891V95.3938C0.571045 100.297 4.57928 104.272 9.52368 104.272H199.026C203.971 104.272 207.979 100.297 207.979 95.3938V26.9891C207.979 22.0856 203.971 18.1107 199.026 18.1107Z" fill="#364738" stroke="black" stroke-width="1.14208" stroke-miterlimit="10"/>
<path d="M37.6304 73.1361C37.5874 73.1361 37.5659 73.1146 37.5659 73.0716V72.5562C37.5659 72.5133 37.5874 72.4918 37.6304 72.4918H38.7901C38.833 72.4918 38.8545 72.4703 38.8545 72.4274V71.9119C38.8545 71.869 38.876 71.8475 38.9189 71.8475H40.0786C40.1216 71.8475 40.1431 71.826 40.1431 71.7831V71.2676C40.1431 71.2247 40.1646 71.2032 40.2075 71.2032H40.7229C40.7659 71.2032 40.7874 71.1817 40.7874 71.1388V69.9791C40.7874 69.9361 40.8088 69.9147 40.8518 69.9147H41.3672C41.4102 69.9147 41.4316 69.8932 41.4316 69.8502V67.4019C41.4316 67.359 41.4531 67.3375 41.4961 67.3375H42.0115C42.0545 67.3375 42.0759 67.316 42.0759 67.2731V65.4691C42.0759 65.4261 42.0974 65.4047 42.1404 65.4047H42.6558C42.6987 65.4047 42.7202 65.3832 42.7202 65.3402V62.8919C42.7202 62.849 42.7417 62.8275 42.7846 62.8275H43.3001C43.343 62.8275 43.3645 62.806 43.3645 62.7631V60.9591C43.3645 60.9161 43.386 60.8947 43.4289 60.8947H43.9444C43.9873 60.8947 44.0088 60.8732 44.0088 60.8302V58.3819C44.0088 58.339 44.0303 58.3175 44.0732 58.3175H44.5886C44.6316 58.3175 44.6531 58.296 44.6531 58.2531V56.4491C44.6531 56.4061 44.6746 56.3847 44.7175 56.3847H45.2329C45.2759 56.3847 45.2974 56.3632 45.2974 56.3202V53.8719C45.2974 53.829 45.3188 53.8075 45.3618 53.8075H45.8772C45.9202 53.8075 45.9416 53.786 45.9416 53.7431V51.9391C45.9416 51.8961 45.9631 51.8747 46.0061 51.8747H46.5215C46.5645 51.8747 46.5859 51.8532 46.5859 51.8102V50.0062C46.5859 49.9633 46.5645 49.9418 46.5215 49.9418H46.0061C45.9631 49.9418 45.9416 49.9203 45.9416 49.8774V49.3619C45.9416 49.319 45.9202 49.2975 45.8772 49.2975H44.7175C44.6746 49.2975 44.6531 49.276 44.6531 49.2331V48.7177C44.6531 48.6747 44.6746 48.6532 44.7175 48.6532H54.8972C54.9402 48.6532 54.9616 48.6747 54.9616 48.7177V49.2331C54.9616 49.276 54.9831 49.2975 55.0261 49.2975H56.1858C56.2287 49.2975 56.2502 49.319 56.2502 49.3619V49.8774C56.2502 49.9203 56.2717 49.9418 56.3146 49.9418H57.4744C57.5173 49.9418 57.5388 49.9633 57.5388 50.0062V51.1659C57.5388 51.2089 57.5603 51.2304 57.6032 51.2304H58.1186C58.1616 51.2304 58.1831 51.2518 58.1831 51.2948V52.4545C58.1831 52.4975 58.2045 52.5189 58.2475 52.5189H58.7629C58.8059 52.5189 58.8274 52.5404 58.8274 52.5834V56.9645C58.8274 57.0075 58.8059 57.0289 58.7629 57.0289H58.2475C58.2045 57.0289 58.1831 57.0504 58.1831 57.0934V60.1859C58.1831 60.2289 58.1616 60.2504 58.1186 60.2504H57.6032C57.5603 60.2504 57.5388 60.2718 57.5388 60.3148V62.1188C57.5388 62.1617 57.5173 62.1832 57.4744 62.1832H56.9589C56.916 62.1832 56.8945 62.2047 56.8945 62.2477V64.0517C56.8945 64.0946 56.873 64.1161 56.8301 64.1161H56.3146C56.2717 64.1161 56.2502 64.1376 56.2502 64.1805V65.9845C56.2502 66.0275 56.2287 66.0489 56.1858 66.0489H55.6704C55.6274 66.0489 55.6059 66.0704 55.6059 66.1134V66.6288C55.6059 66.6717 55.5845 66.6932 55.5415 66.6932H55.0261C54.9831 66.6932 54.9616 66.7147 54.9616 66.7577V67.9174C54.9616 67.9603 54.9402 67.9818 54.8972 67.9818H54.3818C54.3388 67.9818 54.3174 68.0033 54.3174 68.0462V69.2059C54.3174 69.2489 54.2959 69.2704 54.2529 69.2704H53.7375C53.6946 69.2704 53.6731 69.2918 53.6731 69.3348V69.8502C53.6731 69.8932 53.6516 69.9147 53.6086 69.9147H53.0932C53.0503 69.9147 53.0288 69.9361 53.0288 69.9791V70.4945C53.0288 70.5375 53.0073 70.5589 52.9644 70.5589H52.4489C52.406 70.5589 52.3845 70.5804 52.3845 70.6234V71.1388C52.3845 71.1817 52.363 71.2032 52.3201 71.2032H51.8046C51.7617 71.2032 51.7402 71.2247 51.7402 71.2676V71.7831C51.7402 71.826 51.7187 71.8475 51.6758 71.8475H50.5161C50.4731 71.8475 50.4516 71.869 50.4516 71.9119V72.4274C50.4516 72.4703 50.4302 72.4918 50.3872 72.4918H49.2275C49.1846 72.4918 49.1631 72.5133 49.1631 72.5562V73.0716C49.1631 73.1146 49.1416 73.1361 49.0986 73.1361H37.6304ZM43.3645 71.7831C43.3645 71.826 43.386 71.8475 43.4289 71.8475H48.4544C48.4973 71.8475 48.5188 71.826 48.5188 71.7831V71.2676C48.5188 71.2247 48.5403 71.2032 48.5832 71.2032H49.7429C49.7859 71.2032 49.8074 71.1817 49.8074 71.1388V70.6234C49.8074 70.5804 49.8288 70.5589 49.8718 70.5589H50.3872C50.4302 70.5589 50.4516 70.5375 50.4516 70.4945V69.9791C50.4516 69.9361 50.4731 69.9147 50.5161 69.9147H51.0315C51.0745 69.9147 51.0959 69.8932 51.0959 69.8502V69.3348C51.0959 69.2918 51.1174 69.2704 51.1604 69.2704H51.6758C51.7187 69.2704 51.7402 69.2489 51.7402 69.2059V68.0462C51.7402 68.0033 51.7617 67.9818 51.8046 67.9818H52.3201C52.363 67.9818 52.3845 67.9603 52.3845 67.9174V66.7577C52.3845 66.7147 52.406 66.6932 52.4489 66.6932H52.9644C53.0073 66.6932 53.0288 66.6717 53.0288 66.6288V66.1134C53.0288 66.0704 53.0503 66.0489 53.0932 66.0489H53.6086C53.6516 66.0489 53.6731 66.0275 53.6731 65.9845V64.1805C53.6731 64.1376 53.6946 64.1161 53.7375 64.1161H54.2529C54.2959 64.1161 54.3174 64.0946 54.3174 64.0517V62.2477C54.3174 62.2047 54.3388 62.1832 54.3818 62.1832H54.8972C54.9402 62.1832 54.9616 62.1617 54.9616 62.1188V60.3148C54.9616 60.2718 54.9831 60.2504 55.0261 60.2504H55.5415C55.5845 60.2504 55.6059 60.2289 55.6059 60.1859V57.0934C55.6059 57.0504 55.6274 57.0289 55.6704 57.0289H56.1858C56.2287 57.0289 56.2502 57.0075 56.2502 56.9645V52.5834C56.2502 52.5404 56.2287 52.5189 56.1858 52.5189H55.6704C55.6274 52.5189 55.6059 52.4975 55.6059 52.4545V51.2948C55.6059 51.2518 55.5845 51.2304 55.5415 51.2304H55.0261C54.9831 51.2304 54.9616 51.2089 54.9616 51.1659V50.6505C54.9616 50.6076 54.9402 50.5861 54.8972 50.5861H54.3818C54.3388 50.5861 54.3174 50.5646 54.3174 50.5217V50.0062C54.3174 49.9633 54.2959 49.9418 54.2529 49.9418H49.8718C49.8288 49.9418 49.8074 49.9633 49.8074 50.0062V50.5217C49.8074 50.5646 49.7859 50.5861 49.7429 50.5861H49.2275C49.1846 50.5861 49.1631 50.6076 49.1631 50.6505V51.8102C49.1631 51.8532 49.1416 51.8747 49.0986 51.8747H48.5832C48.5403 51.8747 48.5188 51.8961 48.5188 51.9391V53.7431C48.5188 53.786 48.4973 53.8075 48.4544 53.8075H47.9389C47.896 53.8075 47.8745 53.829 47.8745 53.8719V56.3202C47.8745 56.3632 47.853 56.3847 47.8101 56.3847H47.2946C47.2517 56.3847 47.2302 56.4061 47.2302 56.4491V58.2531C47.2302 58.296 47.2087 58.3175 47.1658 58.3175H46.6504C46.6074 58.3175 46.5859 58.339 46.5859 58.3819V60.8302C46.5859 60.8732 46.5645 60.8947 46.5215 60.8947H46.0061C45.9631 60.8947 45.9416 60.9161 45.9416 60.9591V62.7631C45.9416 62.806 45.9202 62.8275 45.8772 62.8275H45.3618C45.3188 62.8275 45.2974 62.849 45.2974 62.8919V65.3402C45.2974 65.3832 45.2759 65.4047 45.2329 65.4047H44.7175C44.6746 65.4047 44.6531 65.4261 44.6531 65.4691V67.2731C44.6531 67.316 44.6316 67.3375 44.5886 67.3375H44.0732C44.0303 67.3375 44.0088 67.359 44.0088 67.4019V69.8502C44.0088 69.8932 43.9873 69.9147 43.9444 69.9147H43.4289C43.386 69.9147 43.3645 69.9361 43.3645 69.9791V71.7831ZM60.1932 73.1361C60.1502 73.1361 60.1288 73.1146 60.1288 73.0716V72.5562C60.1288 72.5133 60.1073 72.4918 60.0643 72.4918H59.5489C59.506 72.4918 59.4845 72.4703 59.4845 72.4274V70.6234C59.4845 70.5804 59.463 70.5589 59.4201 70.5589H58.9046C58.8617 70.5589 58.8402 70.5375 58.8402 70.4945V66.7577C58.8402 66.7147 58.8617 66.6932 58.9046 66.6932H59.4201C59.463 66.6932 59.4845 66.6717 59.4845 66.6288V64.8248C59.4845 64.7818 59.506 64.7604 59.5489 64.7604H60.0643C60.1073 64.7604 60.1288 64.7389 60.1288 64.6959V63.5362C60.1288 63.4933 60.1502 63.4718 60.1932 63.4718H60.7086C60.7516 63.4718 60.773 63.4503 60.773 63.4074V62.2477C60.773 62.2047 60.7945 62.1832 60.8375 62.1832H61.3529C61.3959 62.1832 61.4173 62.1617 61.4173 62.1188V60.9591C61.4173 60.9161 61.4388 60.8947 61.4818 60.8947H61.9972C62.0401 60.8947 62.0616 60.8732 62.0616 60.8302V59.6705C62.0616 59.6276 62.0831 59.6061 62.126 59.6061H62.6415C62.6844 59.6061 62.7059 59.5846 62.7059 59.5417V59.0262C62.7059 58.9833 62.7274 58.9618 62.7703 58.9618H63.2858C63.3287 58.9618 63.3502 58.9403 63.3502 58.8974V58.3819C63.3502 58.339 63.3717 58.3175 63.4146 58.3175H63.93C63.973 58.3175 63.9945 58.296 63.9945 58.2531V57.7377C63.9945 57.6947 64.016 57.6732 64.0589 57.6732H64.5743C64.6173 57.6732 64.6388 57.6517 64.6388 57.6088V57.0934C64.6388 57.0504 64.6602 57.0289 64.7032 57.0289H65.8629C65.9059 57.0289 65.9273 57.0075 65.9273 56.9645V56.4491C65.9273 56.4061 65.9488 56.3847 65.9918 56.3847H69.7286C69.7716 56.3847 69.793 56.4061 69.793 56.4491V56.9645C69.793 57.0075 69.8145 57.0289 69.8575 57.0289H70.3729C70.4159 57.0289 70.4373 57.0504 70.4373 57.0934V58.2531C70.4373 58.296 70.4588 58.3175 70.5018 58.3175H71.0172C71.0601 58.3175 71.0816 58.339 71.0816 58.3819V60.1859C71.0816 60.2289 71.0601 60.2504 71.0172 60.2504H70.5018C70.4588 60.2504 70.4373 60.2718 70.4373 60.3148V60.8302C70.4373 60.8732 70.4159 60.8947 70.3729 60.8947H69.8575C69.8145 60.8947 69.793 60.9161 69.793 60.9591V61.4745C69.793 61.5175 69.7716 61.5389 69.7286 61.5389H69.2132C69.1702 61.5389 69.1488 61.5604 69.1488 61.6034V62.1188C69.1488 62.1617 69.1273 62.1832 69.0843 62.1832H67.9246C67.8817 62.1832 67.8602 62.2047 67.8602 62.2477V62.7631C67.8602 62.806 67.8387 62.8275 67.7958 62.8275H67.2803C67.2374 62.8275 67.2159 62.849 67.2159 62.8919V63.4074C67.2159 63.4503 67.1944 63.4718 67.1515 63.4718H65.3475C65.3045 63.4718 65.283 63.4933 65.283 63.5362V64.0517C65.283 64.0946 65.2616 64.1161 65.2186 64.1161H62.126C62.0831 64.1161 62.0616 64.1376 62.0616 64.1805V66.6288C62.0616 66.6717 62.0401 66.6932 61.9972 66.6932H61.4818C61.4388 66.6932 61.4173 66.7147 61.4173 66.7577V70.4945C61.4173 70.5375 61.4388 70.5589 61.4818 70.5589H61.9972C62.0401 70.5589 62.0616 70.5804 62.0616 70.6234V71.7831C62.0616 71.826 62.0831 71.8475 62.126 71.8475H63.93C63.973 71.8475 63.9945 71.826 63.9945 71.7831V71.2676C63.9945 71.2247 64.016 71.2032 64.0589 71.2032H64.5743C64.6173 71.2032 64.6388 71.1817 64.6388 71.1388V70.6234C64.6388 70.5804 64.6602 70.5589 64.7032 70.5589H65.2186C65.2616 70.5589 65.283 70.5375 65.283 70.4945V69.9791C65.283 69.9361 65.3045 69.9147 65.3475 69.9147H65.8629C65.9059 69.9147 65.9273 69.8932 65.9273 69.8502V69.3348C65.9273 69.2918 65.9488 69.2704 65.9918 69.2704H66.5072C66.5501 69.2704 66.5716 69.2489 66.5716 69.2059V68.6905C66.5716 68.6476 66.5931 68.6261 66.636 68.6261H67.1515C67.1944 68.6261 67.2159 68.6046 67.2159 68.5617V67.4019C67.2159 67.359 67.2374 67.3375 67.2803 67.3375H67.7958C67.8387 67.3375 67.8602 67.316 67.8602 67.2731V66.7577C67.8602 66.7147 67.8817 66.6932 67.9246 66.6932H68.44C68.483 66.6932 68.5045 66.7147 68.5045 66.7577V67.9174C68.5045 67.9603 68.483 67.9818 68.44 67.9818H67.9246C67.8817 67.9818 67.8602 68.0033 67.8602 68.0462V69.2059C67.8602 69.2489 67.8387 69.2704 67.7958 69.2704H67.2803C67.2374 69.2704 67.2159 69.2918 67.2159 69.3348V69.8502C67.2159 69.8932 67.1944 69.9147 67.1515 69.9147H66.636C66.5931 69.9147 66.5716 69.9361 66.5716 69.9791V70.4945C66.5716 70.5375 66.5501 70.5589 66.5072 70.5589H65.9918C65.9488 70.5589 65.9273 70.5804 65.9273 70.6234V71.7831C65.9273 71.826 65.9059 71.8475 65.8629 71.8475H65.3475C65.3045 71.8475 65.283 71.869 65.283 71.9119V72.4274C65.283 72.4703 65.2616 72.4918 65.2186 72.4918H64.7032C64.6602 72.4918 64.6388 72.5133 64.6388 72.5562V73.0716C64.6388 73.1146 64.6173 73.1361 64.5743 73.1361H60.1932ZM62.7059 62.7631C62.7059 62.806 62.7274 62.8275 62.7703 62.8275H64.5743C64.6173 62.8275 64.6388 62.806 64.6388 62.7631V62.2477C64.6388 62.2047 64.6602 62.1832 64.7032 62.1832H65.8629C65.9059 62.1832 65.9273 62.1617 65.9273 62.1188V61.6034C65.9273 61.5604 65.9488 61.5389 65.9918 61.5389H67.1515C67.1944 61.5389 67.2159 61.5175 67.2159 61.4745V60.9591C67.2159 60.9161 67.2374 60.8947 67.2803 60.8947H67.7958C67.8387 60.8947 67.8602 60.8732 67.8602 60.8302V60.3148C67.8602 60.2718 67.8817 60.2504 67.9246 60.2504H68.44C68.483 60.2504 68.5045 60.2289 68.5045 60.1859V58.3819C68.5045 58.339 68.483 58.3175 68.44 58.3175H67.9246C67.8817 58.3175 67.8602 58.296 67.8602 58.2531V57.7377C67.8602 57.6947 67.8387 57.6732 67.7958 57.6732H65.9918C65.9488 57.6732 65.9273 57.6947 65.9273 57.7377V58.2531C65.9273 58.296 65.9059 58.3175 65.8629 58.3175H65.3475C65.3045 58.3175 65.283 58.339 65.283 58.3819V58.8974C65.283 58.9403 65.2616 58.9618 65.2186 58.9618H64.7032C64.6602 58.9618 64.6388 58.9833 64.6388 59.0262V59.5417C64.6388 59.5846 64.6173 59.6061 64.5743 59.6061H64.0589C64.016 59.6061 63.9945 59.6276 63.9945 59.6705V60.8302C63.9945 60.8732 63.973 60.8947 63.93 60.8947H63.4146C63.3717 60.8947 63.3502 60.9161 63.3502 60.9591V62.1188C63.3502 62.1617 63.3287 62.1832 63.2858 62.1832H62.7703C62.7274 62.1832 62.7059 62.2047 62.7059 62.2477V62.7631ZM72.5761 73.1361C72.5331 73.1361 72.5116 73.1146 72.5116 73.0716V72.5562C72.5116 72.5133 72.4902 72.4918 72.4472 72.4918H71.9318C71.8888 72.4918 71.8673 72.4703 71.8673 72.4274V69.3348C71.8673 69.2918 71.8888 69.2704 71.9318 69.2704H72.4472C72.4902 69.2704 72.5116 69.2489 72.5116 69.2059V67.4019C72.5116 67.359 72.5331 67.3375 72.5761 67.3375H73.0915C73.1344 67.3375 73.1559 67.316 73.1559 67.2731V65.4691C73.1559 65.4261 73.1774 65.4047 73.2203 65.4047H73.7358C73.7787 65.4047 73.8002 65.3832 73.8002 65.3402V63.5362C73.8002 63.4933 73.8217 63.4718 73.8646 63.4718H74.3801C74.423 63.4718 74.4445 63.4503 74.4445 63.4074V61.6034C74.4445 61.5604 74.466 61.5389 74.5089 61.5389H75.0243C75.0673 61.5389 75.0888 61.5175 75.0888 61.4745V59.6705C75.0888 59.6276 75.1102 59.6061 75.1532 59.6061H75.6686C75.7116 59.6061 75.7331 59.5846 75.7331 59.5417V57.7377C75.7331 57.6947 75.7116 57.6732 75.6686 57.6732H75.1532C75.1102 57.6732 75.0888 57.6947 75.0888 57.7377V58.2531C75.0888 58.296 75.0673 58.3175 75.0243 58.3175H74.5089C74.466 58.3175 74.4445 58.339 74.4445 58.3819V58.8974C74.4445 58.9403 74.423 58.9618 74.3801 58.9618H73.8646C73.8217 58.9618 73.8002 58.9403 73.8002 58.8974V57.7377C73.8002 57.6947 73.8217 57.6732 73.8646 57.6732H74.3801C74.423 57.6732 74.4445 57.6517 74.4445 57.6088V57.0934C74.4445 57.0504 74.466 57.0289 74.5089 57.0289H75.0243C75.0673 57.0289 75.0888 57.0075 75.0888 56.9645V56.4491C75.0888 56.4061 75.1102 56.3847 75.1532 56.3847H77.6015C77.6444 56.3847 77.6659 56.4061 77.6659 56.4491V56.9645C77.6659 57.0075 77.6874 57.0289 77.7303 57.0289H78.2458C78.2887 57.0289 78.3102 57.0504 78.3102 57.0934V59.5417C78.3102 59.5846 78.2887 59.6061 78.2458 59.6061H77.7303C77.6874 59.6061 77.6659 59.6276 77.6659 59.6705V61.4745C77.6659 61.5175 77.6444 61.5389 77.6015 61.5389H77.0861C77.0431 61.5389 77.0216 61.5604 77.0216 61.6034V63.4074C77.0216 63.4503 77.0002 63.4718 76.9572 63.4718H76.4418C76.3988 63.4718 76.3773 63.4933 76.3773 63.5362V65.3402C76.3773 65.3832 76.3559 65.4047 76.3129 65.4047H75.7975C75.7545 65.4047 75.7331 65.4261 75.7331 65.4691V67.2731C75.7331 67.316 75.7116 67.3375 75.6686 67.3375H75.1532C75.1102 67.3375 75.0888 67.359 75.0888 67.4019V69.2059C75.0888 69.2489 75.0673 69.2704 75.0243 69.2704H74.5089C74.466 69.2704 74.4445 69.2918 74.4445 69.3348V71.7831C74.4445 71.826 74.466 71.8475 74.5089 71.8475H76.3129C76.3559 71.8475 76.3773 71.826 76.3773 71.7831V71.2676C76.3773 71.2247 76.3988 71.2032 76.4418 71.2032H76.9572C77.0002 71.2032 77.0216 71.1817 77.0216 71.1388V70.6234C77.0216 70.5804 77.0431 70.5589 77.0861 70.5589H77.6015C77.6444 70.5589 77.6659 70.5375 77.6659 70.4945V69.9791C77.6659 69.9361 77.6874 69.9147 77.7303 69.9147H78.2458C78.2887 69.9147 78.3102 69.8932 78.3102 69.8502V69.3348C78.3102 69.2918 78.3317 69.2704 78.3746 69.2704H78.8901C78.933 69.2704 78.9545 69.2489 78.9545 69.2059V67.4019C78.9545 67.359 78.976 67.3375 79.0189 67.3375H79.5343C79.5773 67.3375 79.5988 67.316 79.5988 67.2731V65.4691C79.5988 65.4261 79.6202 65.4047 79.6632 65.4047H80.1786C80.2216 65.4047 80.2431 65.3832 80.2431 65.3402V63.5362C80.2431 63.4933 80.2645 63.4718 80.3075 63.4718H80.8229C80.8659 63.4718 80.8873 63.4503 80.8873 63.4074V61.6034C80.8873 61.5604 80.9088 61.5389 80.9518 61.5389H81.4672C81.5102 61.5389 81.5316 61.5175 81.5316 61.4745V59.6705C81.5316 59.6276 81.5531 59.6061 81.5961 59.6061H82.1115C82.1544 59.6061 82.1759 59.5846 82.1759 59.5417V57.7377C82.1759 57.6947 82.1974 57.6732 82.2403 57.6732H82.7558C82.7987 57.6732 82.8202 57.6517 82.8202 57.6088V56.4491C82.8202 56.4061 82.8417 56.3847 82.8846 56.3847H85.3329C85.3759 56.3847 85.3973 56.4061 85.3973 56.4491V57.6088C85.3973 57.6517 85.3759 57.6732 85.3329 57.6732H84.8175C84.7745 57.6732 84.7531 57.6947 84.7531 57.7377V59.5417C84.7531 59.5846 84.7316 59.6061 84.6886 59.6061H84.1732C84.1302 59.6061 84.1088 59.6276 84.1088 59.6705V61.4745C84.1088 61.5175 84.0873 61.5389 84.0443 61.5389H83.5289C83.486 61.5389 83.4645 61.5604 83.4645 61.6034V63.4074C83.4645 63.4503 83.443 63.4718 83.4001 63.4718H82.8846C82.8417 63.4718 82.8202 63.4933 82.8202 63.5362V65.3402C82.8202 65.3832 82.7987 65.4047 82.7558 65.4047H82.2403C82.1974 65.4047 82.1759 65.4261 82.1759 65.4691V67.2731C82.1759 67.316 82.1544 67.3375 82.1115 67.3375H81.5961C81.5531 67.3375 81.5316 67.359 81.5316 67.4019V69.2059C81.5316 69.2489 81.5102 69.2704 81.4672 69.2704H80.9518C80.9088 69.2704 80.8873 69.2918 80.8873 69.3348V71.7831C80.8873 71.826 80.9088 71.8475 80.9518 71.8475H81.4672C81.5102 71.8475 81.5316 71.826 81.5316 71.7831V71.2676C81.5316 71.2247 81.5531 71.2032 81.5961 71.2032H82.1115C82.1544 71.2032 82.1759 71.1817 82.1759 71.1388V70.6234C82.1759 70.5804 82.1974 70.5589 82.2403 70.5589H82.7558C82.7987 70.5589 82.8202 70.5804 82.8202 70.6234V71.7831C82.8202 71.826 82.7987 71.8475 82.7558 71.8475H82.2403C82.1974 71.8475 82.1759 71.869 82.1759 71.9119V72.4274C82.1759 72.4703 82.1544 72.4918 82.1115 72.4918H81.5961C81.5531 72.4918 81.5316 72.5133 81.5316 72.5562V73.0716C81.5316 73.1146 81.5102 73.1361 81.4672 73.1361H79.0189C78.976 73.1361 78.9545 73.1146 78.9545 73.0716V72.5562C78.9545 72.5133 78.933 72.4918 78.8901 72.4918H78.3746C78.3317 72.4918 78.3102 72.4703 78.3102 72.4274V71.2676C78.3102 71.2247 78.2887 71.2032 78.2458 71.2032H77.7303C77.6874 71.2032 77.6659 71.2247 77.6659 71.2676V71.7831C77.6659 71.826 77.6444 71.8475 77.6015 71.8475H77.0861C77.0431 71.8475 77.0216 71.869 77.0216 71.9119V72.4274C77.0216 72.4703 77.0002 72.4918 76.9572 72.4918H76.4418C76.3988 72.4918 76.3773 72.5133 76.3773 72.5562V73.0716C76.3773 73.1146 76.3559 73.1361 76.3129 73.1361H72.5761ZM90.2987 57.0289C90.3416 57.0289 90.3631 57.0075 90.3631 56.9645V56.4491C90.3631 56.4061 90.3846 56.3847 90.4275 56.3847H94.1644C94.2074 56.3847 94.2288 56.4061 94.2288 56.4491V56.9645C94.2288 57.0075 94.2503 57.0289 94.2933 57.0289H94.8087C94.8516 57.0289 94.8731 57.0504 94.8731 57.0934V57.6088C94.8731 57.6517 94.8946 57.6732 94.9375 57.6732H95.453C95.4959 57.6732 95.5174 57.6947 95.5174 57.7377V60.1859C95.5174 60.2289 95.4959 60.2504 95.453 60.2504H94.9375C94.8946 60.2504 94.8731 60.2718 94.8731 60.3148V60.8302C94.8731 60.8732 94.8516 60.8947 94.8087 60.8947H93.649C93.606 60.8947 93.5845 60.8732 93.5845 60.8302V60.3148C93.5845 60.2718 93.5631 60.2504 93.5201 60.2504H93.0047C92.9617 60.2504 92.9403 60.2289 92.9403 60.1859V57.7377C92.9403 57.6947 92.9188 57.6732 92.8758 57.6732H91.0718C91.0289 57.6732 91.0074 57.6947 91.0074 57.7377V58.2531C91.0074 58.296 90.9859 58.3175 90.943 58.3175H90.4275C90.3846 58.3175 90.3631 58.339 90.3631 58.3819V59.5417C90.3631 59.5846 90.3416 59.6061 90.2987 59.6061H89.7833C89.7403 59.6061 89.7188 59.6276 89.7188 59.6705V61.4745C89.7188 61.5175 89.7403 61.5389 89.7833 61.5389H90.2987C90.3416 61.5389 90.3631 61.5604 90.3631 61.6034V62.7631C90.3631 62.806 90.3846 62.8275 90.4275 62.8275H90.943C90.9859 62.8275 91.0074 62.849 91.0074 62.8919V63.4074C91.0074 63.4503 91.0289 63.4718 91.0718 63.4718H91.5873C91.6302 63.4718 91.6517 63.4933 91.6517 63.5362V64.0517C91.6517 64.0946 91.6732 64.1161 91.7161 64.1161H92.2315C92.2745 64.1161 92.296 64.1376 92.296 64.1805V64.6959C92.296 64.7389 92.3175 64.7604 92.3604 64.7604H92.8758C92.9188 64.7604 92.9403 64.7818 92.9403 64.8248V65.9845C92.9403 66.0275 92.9617 66.0489 93.0047 66.0489H93.5201C93.5631 66.0489 93.5845 66.0704 93.5845 66.1134V69.8502C93.5845 69.8932 93.5631 69.9147 93.5201 69.9147H93.0047C92.9617 69.9147 92.9403 69.9361 92.9403 69.9791V71.1388C92.9403 71.1817 92.9188 71.2032 92.8758 71.2032H92.3604C92.3175 71.2032 92.296 71.2247 92.296 71.2676V71.7831C92.296 71.826 92.2745 71.8475 92.2315 71.8475H91.7161C91.6732 71.8475 91.6517 71.869 91.6517 71.9119V72.4274C91.6517 72.4703 91.6302 72.4918 91.5873 72.4918H91.0718C91.0289 72.4918 91.0074 72.5133 91.0074 72.5562V73.0716C91.0074 73.1146 90.9859 73.1361 90.943 73.1361H87.2061C87.1632 73.1361 87.1417 73.1146 87.1417 73.0716V72.5562C87.1417 72.5133 87.1202 72.4918 87.0773 72.4918H86.5618C86.5189 72.4918 86.4974 72.4703 86.4974 72.4274V71.9119C86.4974 71.869 86.4759 71.8475 86.433 71.8475H85.9175C85.8746 71.8475 85.8531 71.826 85.8531 71.7831V69.3348C85.8531 69.2918 85.8746 69.2704 85.9175 69.2704H86.433C86.4759 69.2704 86.4974 69.2489 86.4974 69.2059V68.6905C86.4974 68.6476 86.5189 68.6261 86.5618 68.6261H87.7215C87.7645 68.6261 87.786 68.6476 87.786 68.6905V69.2059C87.786 69.2489 87.8075 69.2704 87.8504 69.2704H88.3658C88.4088 69.2704 88.4303 69.2918 88.4303 69.3348V71.7831C88.4303 71.826 88.4517 71.8475 88.4947 71.8475H90.2987C90.3416 71.8475 90.3631 71.826 90.3631 71.7831V71.2676C90.3631 71.2247 90.3846 71.2032 90.4275 71.2032H90.943C90.9859 71.2032 91.0074 71.1817 91.0074 71.1388V69.9791C91.0074 69.9361 91.0289 69.9147 91.0718 69.9147H91.5873C91.6302 69.9147 91.6517 69.8932 91.6517 69.8502V67.4019C91.6517 67.359 91.6302 67.3375 91.5873 67.3375H91.0718C91.0289 67.3375 91.0074 67.316 91.0074 67.2731V66.1134C91.0074 66.0704 90.9859 66.0489 90.943 66.0489H90.4275C90.3846 66.0489 90.3631 66.0275 90.3631 65.9845V65.4691C90.3631 65.4261 90.3416 65.4047 90.2987 65.4047H89.7833C89.7403 65.4047 89.7188 65.3832 89.7188 65.3402V64.1805C89.7188 64.1376 89.6974 64.1161 89.6544 64.1161H89.139C89.096 64.1161 89.0745 64.0946 89.0745 64.0517V63.5362C89.0745 63.4933 89.0531 63.4718 89.0101 63.4718H88.4947C88.4517 63.4718 88.4303 63.4503 88.4303 63.4074V62.8919C88.4303 62.849 88.4088 62.8275 88.3658 62.8275H87.8504C87.8075 62.8275 87.786 62.806 87.786 62.7631V59.6705C87.786 59.6276 87.8075 59.6061 87.8504 59.6061H88.3658C88.4088 59.6061 88.4303 59.5846 88.4303 59.5417V58.3819C88.4303 58.339 88.4517 58.3175 88.4947 58.3175H89.0101C89.0531 58.3175 89.0745 58.296 89.0745 58.2531V57.7377C89.0745 57.6947 89.096 57.6732 89.139 57.6732H89.6544C89.6974 57.6732 89.7188 57.6517 89.7188 57.6088V57.0934C89.7188 57.0504 89.7403 57.0289 89.7833 57.0289H90.2987ZM104.299 73.1361C104.256 73.1361 104.235 73.1146 104.235 73.0716V72.5562C104.235 72.5133 104.213 72.4918 104.17 72.4918H103.655C103.612 72.4918 103.59 72.4703 103.59 72.4274V70.6234C103.59 70.5804 103.569 70.5589 103.526 70.5589H103.01C102.968 70.5589 102.946 70.5375 102.946 70.4945V66.7577C102.946 66.7147 102.968 66.6932 103.01 66.6932H103.526C103.569 66.6932 103.59 66.6717 103.59 66.6288V64.8248C103.59 64.7818 103.612 64.7604 103.655 64.7604H104.17C104.213 64.7604 104.235 64.7389 104.235 64.6959V63.5362C104.235 63.4933 104.256 63.4718 104.299 63.4718H104.814C104.857 63.4718 104.879 63.4503 104.879 63.4074V62.2477C104.879 62.2047 104.9 62.1832 104.943 62.1832H105.459C105.502 62.1832 105.523 62.1617 105.523 62.1188V60.9591C105.523 60.9161 105.545 60.8947 105.588 60.8947H106.103C106.146 60.8947 106.167 60.8732 106.167 60.8302V59.6705C106.167 59.6276 106.189 59.6061 106.232 59.6061H106.747C106.79 59.6061 106.812 59.5846 106.812 59.5417V59.0262C106.812 58.9833 106.833 58.9618 106.876 58.9618H107.392C107.435 58.9618 107.456 58.9403 107.456 58.8974V58.3819C107.456 58.339 107.478 58.3175 107.52 58.3175H108.036C108.079 58.3175 108.1 58.296 108.1 58.2531V57.7377C108.1 57.6947 108.122 57.6732 108.165 57.6732H108.68C108.723 57.6732 108.745 57.6517 108.745 57.6088V57.0934C108.745 57.0504 108.766 57.0289 108.809 57.0289H109.969C110.012 57.0289 110.033 57.0075 110.033 56.9645V56.4491C110.033 56.4061 110.055 56.3847 110.098 56.3847H113.834C113.877 56.3847 113.899 56.4061 113.899 56.4491V56.9645C113.899 57.0075 113.92 57.0289 113.963 57.0289H114.479C114.522 57.0289 114.543 57.0504 114.543 57.0934V58.2531C114.543 58.296 114.565 58.3175 114.608 58.3175H115.123C115.166 58.3175 115.187 58.339 115.187 58.3819V60.1859C115.187 60.2289 115.166 60.2504 115.123 60.2504H114.608C114.565 60.2504 114.543 60.2718 114.543 60.3148V60.8302C114.543 60.8732 114.522 60.8947 114.479 60.8947H113.963C113.92 60.8947 113.899 60.9161 113.899 60.9591V61.4745C113.899 61.5175 113.877 61.5389 113.834 61.5389H113.319C113.276 61.5389 113.255 61.5604 113.255 61.6034V62.1188C113.255 62.1617 113.233 62.1832 113.19 62.1832H112.03C111.988 62.1832 111.966 62.2047 111.966 62.2477V62.7631C111.966 62.806 111.945 62.8275 111.902 62.8275H111.386C111.343 62.8275 111.322 62.849 111.322 62.8919V63.4074C111.322 63.4503 111.3 63.4718 111.257 63.4718H109.453C109.41 63.4718 109.389 63.4933 109.389 63.5362V64.0517C109.389 64.0946 109.367 64.1161 109.324 64.1161H106.232C106.189 64.1161 106.167 64.1376 106.167 64.1805V66.6288C106.167 66.6717 106.146 66.6932 106.103 66.6932H105.588C105.545 66.6932 105.523 66.7147 105.523 66.7577V70.4945C105.523 70.5375 105.545 70.5589 105.588 70.5589H106.103C106.146 70.5589 106.167 70.5804 106.167 70.6234V71.7831C106.167 71.826 106.189 71.8475 106.232 71.8475H108.036C108.079 71.8475 108.1 71.826 108.1 71.7831V71.2676C108.1 71.2247 108.122 71.2032 108.165 71.2032H108.68C108.723 71.2032 108.745 71.1817 108.745 71.1388V70.6234C108.745 70.5804 108.766 70.5589 108.809 70.5589H109.324C109.367 70.5589 109.389 70.5375 109.389 70.4945V69.9791C109.389 69.9361 109.41 69.9147 109.453 69.9147H109.969C110.012 69.9147 110.033 69.8932 110.033 69.8502V69.3348C110.033 69.2918 110.055 69.2704 110.098 69.2704H110.613C110.656 69.2704 110.677 69.2489 110.677 69.2059V68.6905C110.677 68.6476 110.699 68.6261 110.742 68.6261H111.257C111.3 68.6261 111.322 68.6046 111.322 68.5617V67.4019C111.322 67.359 111.343 67.3375 111.386 67.3375H111.902C111.945 67.3375 111.966 67.316 111.966 67.2731V66.7577C111.966 66.7147 111.988 66.6932 112.03 66.6932H112.546C112.589 66.6932 112.61 66.7147 112.61 66.7577V67.9174C112.61 67.9603 112.589 67.9818 112.546 67.9818H112.03C111.988 67.9818 111.966 68.0033 111.966 68.0462V69.2059C111.966 69.2489 111.945 69.2704 111.902 69.2704H111.386C111.343 69.2704 111.322 69.2918 111.322 69.3348V69.8502C111.322 69.8932 111.3 69.9147 111.257 69.9147H110.742C110.699 69.9147 110.677 69.9361 110.677 69.9791V70.4945C110.677 70.5375 110.656 70.5589 110.613 70.5589H110.098C110.055 70.5589 110.033 70.5804 110.033 70.6234V71.7831C110.033 71.826 110.012 71.8475 109.969 71.8475H109.453C109.41 71.8475 109.389 71.869 109.389 71.9119V72.4274C109.389 72.4703 109.367 72.4918 109.324 72.4918H108.809C108.766 72.4918 108.745 72.5133 108.745 72.5562V73.0716C108.745 73.1146 108.723 73.1361 108.68 73.1361H104.299ZM106.812 62.7631C106.812 62.806 106.833 62.8275 106.876 62.8275H108.68C108.723 62.8275 108.745 62.806 108.745 62.7631V62.2477C108.745 62.2047 108.766 62.1832 108.809 62.1832H109.969C110.012 62.1832 110.033 62.1617 110.033 62.1188V61.6034C110.033 61.5604 110.055 61.5389 110.098 61.5389H111.257C111.3 61.5389 111.322 61.5175 111.322 61.4745V60.9591C111.322 60.9161 111.343 60.8947 111.386 60.8947H111.902C111.945 60.8947 111.966 60.8732 111.966 60.8302V60.3148C111.966 60.2718 111.988 60.2504 112.03 60.2504H112.546C112.589 60.2504 112.61 60.2289 112.61 60.1859V58.3819C112.61 58.339 112.589 58.3175 112.546 58.3175H112.03C111.988 58.3175 111.966 58.296 111.966 58.2531V57.7377C111.966 57.6947 111.945 57.6732 111.902 57.6732H110.098C110.055 57.6732 110.033 57.6947 110.033 57.7377V58.2531C110.033 58.296 110.012 58.3175 109.969 58.3175H109.453C109.41 58.3175 109.389 58.339 109.389 58.3819V58.8974C109.389 58.9403 109.367 58.9618 109.324 58.9618H108.809C108.766 58.9618 108.745 58.9833 108.745 59.0262V59.5417C108.745 59.5846 108.723 59.6061 108.68 59.6061H108.165C108.122 59.6061 108.1 59.6276 108.1 59.6705V60.8302C108.1 60.8732 108.079 60.8947 108.036 60.8947H107.52C107.478 60.8947 107.456 60.9161 107.456 60.9591V62.1188C107.456 62.1617 107.435 62.1832 107.392 62.1832H106.876C106.833 62.1832 106.812 62.2047 106.812 62.2477V62.7631ZM111.322 53.2277C111.322 53.1847 111.343 53.1632 111.386 53.1632H111.902C111.945 53.1632 111.966 53.1418 111.966 53.0988V51.9391C111.966 51.8961 111.988 51.8747 112.03 51.8747H112.546C112.589 51.8747 112.61 51.8532 112.61 51.8102V50.6505C112.61 50.6076 112.632 50.5861 112.675 50.5861H113.19C113.233 50.5861 113.255 50.5646 113.255 50.5217V49.3619C113.255 49.319 113.276 49.2975 113.319 49.2975H113.834C113.877 49.2975 113.899 49.276 113.899 49.2331V48.7177C113.899 48.6747 113.92 48.6532 113.963 48.6532H116.412C116.455 48.6532 116.476 48.6747 116.476 48.7177V49.8774C116.476 49.9203 116.455 49.9418 116.412 49.9418H115.896C115.853 49.9418 115.832 49.9633 115.832 50.0062V50.5217C115.832 50.5646 115.81 50.5861 115.767 50.5861H115.252C115.209 50.5861 115.187 50.6076 115.187 50.6505V51.1659C115.187 51.2089 115.166 51.2304 115.123 51.2304H114.608C114.565 51.2304 114.543 51.2518 114.543 51.2948V51.8102C114.543 51.8532 114.522 51.8747 114.479 51.8747H113.963C113.92 51.8747 113.899 51.8961 113.899 51.9391V52.4545C113.899 52.4975 113.877 52.5189 113.834 52.5189H113.319C113.276 52.5189 113.255 52.5404 113.255 52.5834V53.0988C113.255 53.1418 113.233 53.1632 113.19 53.1632H112.675C112.632 53.1632 112.61 53.1847 112.61 53.2277V53.7431C112.61 53.786 112.589 53.8075 112.546 53.8075H112.03C111.988 53.8075 111.966 53.829 111.966 53.8719V54.3874C111.966 54.4303 111.945 54.4518 111.902 54.4518H111.386C111.343 54.4518 111.322 54.4303 111.322 54.3874V53.2277ZM120.683 73.1361C120.64 73.1361 120.618 73.1146 120.618 73.0716V72.5562C120.618 72.5133 120.64 72.4918 120.683 72.4918H121.843C121.885 72.4918 121.907 72.4703 121.907 72.4274V71.9119C121.907 71.869 121.928 71.8475 121.971 71.8475H123.131C123.174 71.8475 123.196 71.826 123.196 71.7831V71.2676C123.196 71.2247 123.217 71.2032 123.26 71.2032H123.775C123.818 71.2032 123.84 71.1817 123.84 71.1388V69.9791C123.84 69.9361 123.861 69.9147 123.904 69.9147H124.42C124.463 69.9147 124.484 69.8932 124.484 69.8502V67.4019C124.484 67.359 124.506 67.3375 124.549 67.3375H125.064C125.107 67.3375 125.128 67.316 125.128 67.2731V65.4691C125.128 65.4261 125.15 65.4047 125.193 65.4047H125.708C125.751 65.4047 125.773 65.3832 125.773 65.3402V62.8919C125.773 62.849 125.794 62.8275 125.837 62.8275H126.353C126.395 62.8275 126.417 62.806 126.417 62.7631V60.9591C126.417 60.9161 126.438 60.8947 126.481 60.8947H126.997C127.04 60.8947 127.061 60.8732 127.061 60.8302V58.3819C127.061 58.339 127.083 58.3175 127.126 58.3175H127.641C127.684 58.3175 127.706 58.296 127.706 58.2531V56.4491C127.706 56.4061 127.727 56.3847 127.77 56.3847H128.285C128.328 56.3847 128.35 56.3632 128.35 56.3202V53.8719C128.35 53.829 128.371 53.8075 128.414 53.8075H128.93C128.973 53.8075 128.994 53.786 128.994 53.7431V51.9391C128.994 51.8961 129.016 51.8747 129.059 51.8747H129.574C129.617 51.8747 129.638 51.8532 129.638 51.8102V50.0062C129.638 49.9633 129.617 49.9418 129.574 49.9418H129.059C129.016 49.9418 128.994 49.9203 128.994 49.8774V49.3619C128.994 49.319 128.973 49.2975 128.93 49.2975H127.77C127.727 49.2975 127.706 49.276 127.706 49.2331V48.7177C127.706 48.6747 127.727 48.6532 127.77 48.6532H140.527C140.57 48.6532 140.591 48.6747 140.591 48.7177V49.8774C140.591 49.9203 140.57 49.9418 140.527 49.9418H140.011C139.968 49.9418 139.947 49.9633 139.947 50.0062V52.4545C139.947 52.4975 139.925 52.5189 139.883 52.5189H139.367C139.324 52.5189 139.303 52.5404 139.303 52.5834V53.7431C139.303 53.786 139.281 53.8075 139.238 53.8075H138.723C138.68 53.8075 138.658 53.786 138.658 53.7431V50.6505C138.658 50.6076 138.637 50.5861 138.594 50.5861H138.079C138.036 50.5861 138.014 50.5646 138.014 50.5217V50.0062C138.014 49.9633 137.993 49.9418 137.95 49.9418H132.924C132.881 49.9418 132.86 49.9633 132.86 50.0062V50.5217C132.86 50.5646 132.838 50.5861 132.795 50.5861H132.28C132.237 50.5861 132.216 50.6076 132.216 50.6505V51.8102C132.216 51.8532 132.194 51.8747 132.151 51.8747H131.636C131.593 51.8747 131.571 51.8961 131.571 51.9391V53.7431C131.571 53.786 131.55 53.8075 131.507 53.8075H130.991C130.948 53.8075 130.927 53.829 130.927 53.8719V56.3202C130.927 56.3632 130.905 56.3847 130.863 56.3847H130.347C130.304 56.3847 130.283 56.4061 130.283 56.4491V58.2531C130.283 58.296 130.261 58.3175 130.218 58.3175H129.703C129.66 58.3175 129.638 58.339 129.638 58.3819V60.1859C129.638 60.2289 129.66 60.2504 129.703 60.2504H133.44C133.483 60.2504 133.504 60.2289 133.504 60.1859V59.6705C133.504 59.6276 133.526 59.6061 133.569 59.6061H134.084C134.127 59.6061 134.148 59.5846 134.148 59.5417V59.0262C134.148 58.9833 134.17 58.9618 134.213 58.9618H134.728C134.771 58.9618 134.793 58.9403 134.793 58.8974V57.7377C134.793 57.6947 134.814 57.6732 134.857 57.6732H135.373C135.415 57.6732 135.437 57.6517 135.437 57.6088V57.0934C135.437 57.0504 135.458 57.0289 135.501 57.0289H136.017C136.06 57.0289 136.081 57.0504 136.081 57.0934V58.8974C136.081 58.9403 136.06 58.9618 136.017 58.9618H135.501C135.458 58.9618 135.437 58.9833 135.437 59.0262V60.8302C135.437 60.8732 135.415 60.8947 135.373 60.8947H134.857C134.814 60.8947 134.793 60.9161 134.793 60.9591V62.7631C134.793 62.806 134.771 62.8275 134.728 62.8275H134.213C134.17 62.8275 134.148 62.849 134.148 62.8919V64.0517C134.148 64.0946 134.127 64.1161 134.084 64.1161H133.569C133.526 64.1161 133.504 64.1376 133.504 64.1805V64.6959C133.504 64.7389 133.483 64.7604 133.44 64.7604H132.924C132.881 64.7604 132.86 64.7389 132.86 64.6959V62.8919C132.86 62.849 132.881 62.8275 132.924 62.8275H133.44C133.483 62.8275 133.504 62.806 133.504 62.7631V61.6034C133.504 61.5604 133.483 61.5389 133.44 61.5389H129.059C129.016 61.5389 128.994 61.5604 128.994 61.6034V62.7631C128.994 62.806 128.973 62.8275 128.93 62.8275H128.414C128.371 62.8275 128.35 62.849 128.35 62.8919V65.3402C128.35 65.3832 128.328 65.4047 128.285 65.4047H127.77C127.727 65.4047 127.706 65.4261 127.706 65.4691V67.2731C127.706 67.316 127.684 67.3375 127.641 67.3375H127.126C127.083 67.3375 127.061 67.359 127.061 67.4019V69.8502C127.061 69.8932 127.04 69.9147 126.997 69.9147H126.481C126.438 69.9147 126.417 69.9361 126.417 69.9791V71.7831C126.417 71.826 126.438 71.8475 126.481 71.8475H126.997C127.04 71.8475 127.061 71.869 127.061 71.9119V72.4274C127.061 72.4703 127.083 72.4918 127.126 72.4918H128.285C128.328 72.4918 128.35 72.5133 128.35 72.5562V73.0716C128.35 73.1146 128.328 73.1361 128.285 73.1361H120.683ZM137.476 73.1361C137.434 73.1361 137.412 73.1146 137.412 73.0716V72.5562C137.412 72.5133 137.391 72.4918 137.348 72.4918H136.832C136.789 72.4918 136.768 72.4703 136.768 72.4274V69.3348C136.768 69.2918 136.789 69.2704 136.832 69.2704H137.348C137.391 69.2704 137.412 69.2489 137.412 69.2059V67.4019C137.412 67.359 137.434 67.3375 137.476 67.3375H137.992C138.035 67.3375 138.056 67.316 138.056 67.2731V65.4691C138.056 65.4261 138.078 65.4047 138.121 65.4047H138.636C138.679 65.4047 138.701 65.3832 138.701 65.3402V63.5362C138.701 63.4933 138.722 63.4718 138.765 63.4718H139.28C139.323 63.4718 139.345 63.4503 139.345 63.4074V61.6034C139.345 61.5604 139.366 61.5389 139.409 61.5389H139.925C139.968 61.5389 139.989 61.5175 139.989 61.4745V59.6705C139.989 59.6276 140.011 59.6061 140.054 59.6061H140.569C140.612 59.6061 140.633 59.5846 140.633 59.5417V57.7377C140.633 57.6947 140.612 57.6732 140.569 57.6732H140.054C140.011 57.6732 139.989 57.6947 139.989 57.7377V58.2531C139.989 58.296 139.968 58.3175 139.925 58.3175H139.409C139.366 58.3175 139.345 58.339 139.345 58.3819V58.8974C139.345 58.9403 139.323 58.9618 139.28 58.9618H138.765C138.722 58.9618 138.701 58.9403 138.701 58.8974V57.7377C138.701 57.6947 138.722 57.6732 138.765 57.6732H139.28C139.323 57.6732 139.345 57.6517 139.345 57.6088V57.0934C139.345 57.0504 139.366 57.0289 139.409 57.0289H139.925C139.968 57.0289 139.989 57.0075 139.989 56.9645V56.4491C139.989 56.4061 140.011 56.3847 140.054 56.3847H142.502C142.545 56.3847 142.566 56.4061 142.566 56.4491V56.9645C142.566 57.0075 142.588 57.0289 142.631 57.0289H143.146C143.189 57.0289 143.211 57.0504 143.211 57.0934V59.5417C143.211 59.5846 143.189 59.6061 143.146 59.6061H142.631C142.588 59.6061 142.566 59.6276 142.566 59.6705V61.4745C142.566 61.5175 142.545 61.5389 142.502 61.5389H141.986C141.944 61.5389 141.922 61.5604 141.922 61.6034V63.4074C141.922 63.4503 141.901 63.4718 141.858 63.4718H141.342C141.299 63.4718 141.278 63.4933 141.278 63.5362V65.3402C141.278 65.3832 141.256 65.4047 141.213 65.4047H140.698C140.655 65.4047 140.633 65.4261 140.633 65.4691V67.2731C140.633 67.316 140.612 67.3375 140.569 67.3375H140.054C140.011 67.3375 139.989 67.359 139.989 67.4019V69.2059C139.989 69.2489 139.968 69.2704 139.925 69.2704H139.409C139.366 69.2704 139.345 69.2918 139.345 69.3348V71.7831C139.345 71.826 139.366 71.8475 139.409 71.8475H139.925C139.968 71.8475 139.989 71.826 139.989 71.7831V71.2676C139.989 71.2247 140.011 71.2032 140.054 71.2032H140.569C140.612 71.2032 140.633 71.1817 140.633 71.1388V70.6234C140.633 70.5804 140.655 70.5589 140.698 70.5589H141.213C141.256 70.5589 141.278 70.5804 141.278 70.6234V71.7831C141.278 71.826 141.256 71.8475 141.213 71.8475H140.698C140.655 71.8475 140.633 71.869 140.633 71.9119V72.4274C140.633 72.4703 140.612 72.4918 140.569 72.4918H140.054C140.011 72.4918 139.989 72.5133 139.989 72.5562V73.0716C139.989 73.1146 139.968 73.1361 139.925 73.1361H137.476ZM141.278 49.3619C141.278 49.319 141.299 49.2975 141.342 49.2975H141.858C141.901 49.2975 141.922 49.276 141.922 49.2331V48.7177C141.922 48.6747 141.944 48.6532 141.986 48.6532H143.79C143.833 48.6532 143.855 48.6747 143.855 48.7177V49.2331C143.855 49.276 143.876 49.2975 143.919 49.2975H144.435C144.478 49.2975 144.499 49.319 144.499 49.3619V51.1659C144.499 51.2089 144.478 51.2304 144.435 51.2304H143.919C143.876 51.2304 143.855 51.2518 143.855 51.2948V51.8102C143.855 51.8532 143.833 51.8747 143.79 51.8747H141.986C141.944 51.8747 141.922 51.8532 141.922 51.8102V51.2948C141.922 51.2518 141.901 51.2304 141.858 51.2304H141.342C141.299 51.2304 141.278 51.2089 141.278 51.1659V49.3619ZM146.108 73.1361C146.065 73.1361 146.044 73.1146 146.044 73.0716V72.5562C146.044 72.5133 146.023 72.4918 145.98 72.4918H145.464C145.421 72.4918 145.4 72.4703 145.4 72.4274V70.6234C145.4 70.5804 145.378 70.5589 145.335 70.5589H144.82C144.777 70.5589 144.755 70.5375 144.755 70.4945V66.7577C144.755 66.7147 144.777 66.6932 144.82 66.6932H145.335C145.378 66.6932 145.4 66.6717 145.4 66.6288V64.8248C145.4 64.7818 145.421 64.7604 145.464 64.7604H145.98C146.023 64.7604 146.044 64.7389 146.044 64.6959V63.5362C146.044 63.4933 146.065 63.4718 146.108 63.4718H146.624C146.667 63.4718 146.688 63.4503 146.688 63.4074V62.2477C146.688 62.2047 146.71 62.1832 146.753 62.1832H147.268C147.311 62.1832 147.333 62.1617 147.333 62.1188V60.9591C147.333 60.9161 147.354 60.8947 147.397 60.8947H147.912C147.955 60.8947 147.977 60.8732 147.977 60.8302V59.6705C147.977 59.6276 147.998 59.6061 148.041 59.6061H148.557C148.6 59.6061 148.621 59.5846 148.621 59.5417V59.0262C148.621 58.9833 148.643 58.9618 148.686 58.9618H149.201C149.244 58.9618 149.265 58.9403 149.265 58.8974V58.3819C149.265 58.339 149.287 58.3175 149.33 58.3175H149.845C149.888 58.3175 149.91 58.296 149.91 58.2531V57.7377C149.91 57.6947 149.931 57.6732 149.974 57.6732H150.49C150.533 57.6732 150.554 57.6517 150.554 57.6088V57.0934C150.554 57.0504 150.575 57.0289 150.618 57.0289H151.778C151.821 57.0289 151.843 57.0075 151.843 56.9645V56.4491C151.843 56.4061 151.864 56.3847 151.907 56.3847H155.644C155.687 56.3847 155.708 56.4061 155.708 56.4491V56.9645C155.708 57.0075 155.73 57.0289 155.773 57.0289H156.288C156.331 57.0289 156.353 57.0504 156.353 57.0934V58.2531C156.353 58.296 156.374 58.3175 156.417 58.3175H156.932C156.975 58.3175 156.997 58.339 156.997 58.3819V60.1859C156.997 60.2289 156.975 60.2504 156.932 60.2504H156.417C156.374 60.2504 156.353 60.2718 156.353 60.3148V60.8302C156.353 60.8732 156.331 60.8947 156.288 60.8947H155.773C155.73 60.8947 155.708 60.9161 155.708 60.9591V61.4745C155.708 61.5175 155.687 61.5389 155.644 61.5389H155.128C155.085 61.5389 155.064 61.5604 155.064 61.6034V62.1188C155.064 62.1617 155.043 62.1832 155 62.1832H153.84C153.797 62.1832 153.775 62.2047 153.775 62.2477V62.7631C153.775 62.806 153.754 62.8275 153.711 62.8275H153.196C153.153 62.8275 153.131 62.849 153.131 62.8919V63.4074C153.131 63.4503 153.11 63.4718 153.067 63.4718H151.263C151.22 63.4718 151.198 63.4933 151.198 63.5362V64.0517C151.198 64.0946 151.177 64.1161 151.134 64.1161H148.041C147.998 64.1161 147.977 64.1376 147.977 64.1805V66.6288C147.977 66.6717 147.955 66.6932 147.912 66.6932H147.397C147.354 66.6932 147.333 66.7147 147.333 66.7577V70.4945C147.333 70.5375 147.354 70.5589 147.397 70.5589H147.912C147.955 70.5589 147.977 70.5804 147.977 70.6234V71.7831C147.977 71.826 147.998 71.8475 148.041 71.8475H149.845C149.888 71.8475 149.91 71.826 149.91 71.7831V71.2676C149.91 71.2247 149.931 71.2032 149.974 71.2032H150.49C150.533 71.2032 150.554 71.1817 150.554 71.1388V70.6234C150.554 70.5804 150.575 70.5589 150.618 70.5589H151.134C151.177 70.5589 151.198 70.5375 151.198 70.4945V69.9791C151.198 69.9361 151.22 69.9147 151.263 69.9147H151.778C151.821 69.9147 151.843 69.8932 151.843 69.8502V69.3348C151.843 69.2918 151.864 69.2704 151.907 69.2704H152.422C152.465 69.2704 152.487 69.2489 152.487 69.2059V68.6905C152.487 68.6476 152.508 68.6261 152.551 68.6261H153.067C153.11 68.6261 153.131 68.6046 153.131 68.5617V67.4019C153.131 67.359 153.153 67.3375 153.196 67.3375H153.711C153.754 67.3375 153.775 67.316 153.775 67.2731V66.7577C153.775 66.7147 153.797 66.6932 153.84 66.6932H154.355C154.398 66.6932 154.42 66.7147 154.42 66.7577V67.9174C154.42 67.9603 154.398 67.9818 154.355 67.9818H153.84C153.797 67.9818 153.775 68.0033 153.775 68.0462V69.2059C153.775 69.2489 153.754 69.2704 153.711 69.2704H153.196C153.153 69.2704 153.131 69.2918 153.131 69.3348V69.8502C153.131 69.8932 153.11 69.9147 153.067 69.9147H152.551C152.508 69.9147 152.487 69.9361 152.487 69.9791V70.4945C152.487 70.5375 152.465 70.5589 152.422 70.5589H151.907C151.864 70.5589 151.843 70.5804 151.843 70.6234V71.7831C151.843 71.826 151.821 71.8475 151.778 71.8475H151.263C151.22 71.8475 151.198 71.869 151.198 71.9119V72.4274C151.198 72.4703 151.177 72.4918 151.134 72.4918H150.618C150.575 72.4918 150.554 72.5133 150.554 72.5562V73.0716C150.554 73.1146 150.533 73.1361 150.49 73.1361H146.108ZM148.621 62.7631C148.621 62.806 148.643 62.8275 148.686 62.8275H150.49C150.533 62.8275 150.554 62.806 150.554 62.7631V62.2477C150.554 62.2047 150.575 62.1832 150.618 62.1832H151.778C151.821 62.1832 151.843 62.1617 151.843 62.1188V61.6034C151.843 61.5604 151.864 61.5389 151.907 61.5389H153.067C153.11 61.5389 153.131 61.5175 153.131 61.4745V60.9591C153.131 60.9161 153.153 60.8947 153.196 60.8947H153.711C153.754 60.8947 153.775 60.8732 153.775 60.8302V60.3148C153.775 60.2718 153.797 60.2504 153.84 60.2504H154.355C154.398 60.2504 154.42 60.2289 154.42 60.1859V58.3819C154.42 58.339 154.398 58.3175 154.355 58.3175H153.84C153.797 58.3175 153.775 58.296 153.775 58.2531V57.7377C153.775 57.6947 153.754 57.6732 153.711 57.6732H151.907C151.864 57.6732 151.843 57.6947 151.843 57.7377V58.2531C151.843 58.296 151.821 58.3175 151.778 58.3175H151.263C151.22 58.3175 151.198 58.339 151.198 58.3819V58.8974C151.198 58.9403 151.177 58.9618 151.134 58.9618H150.618C150.575 58.9618 150.554 58.9833 150.554 59.0262V59.5417C150.554 59.5846 150.533 59.6061 150.49 59.6061H149.974C149.931 59.6061 149.91 59.6276 149.91 59.6705V60.8302C149.91 60.8732 149.888 60.8947 149.845 60.8947H149.33C149.287 60.8947 149.265 60.9161 149.265 60.9591V62.1188C149.265 62.1617 149.244 62.1832 149.201 62.1832H148.686C148.643 62.1832 148.621 62.2047 148.621 62.2477V62.7631ZM157.589 72.4918C157.546 72.4918 157.525 72.4703 157.525 72.4274V69.3348C157.525 69.2918 157.546 69.2704 157.589 69.2704H158.105C158.148 69.2704 158.169 69.2489 158.169 69.2059V67.4019C158.169 67.359 158.191 67.3375 158.234 67.3375H158.749C158.792 67.3375 158.813 67.316 158.813 67.2731V65.4691C158.813 65.4261 158.835 65.4047 158.878 65.4047H159.393C159.436 65.4047 159.458 65.3832 159.458 65.3402V63.5362C159.458 63.4933 159.479 63.4718 159.522 63.4718H160.038C160.081 63.4718 160.102 63.4503 160.102 63.4074V61.6034C160.102 61.5604 160.123 61.5389 160.166 61.5389H160.682C160.725 61.5389 160.746 61.5175 160.746 61.4745V59.6705C160.746 59.6276 160.768 59.6061 160.811 59.6061H161.326C161.369 59.6061 161.391 59.5846 161.391 59.5417V57.7377C161.391 57.6947 161.412 57.6732 161.455 57.6732H161.97C162.013 57.6732 162.035 57.6517 162.035 57.6088V55.8048C162.035 55.7618 162.056 55.7404 162.099 55.7404H162.615C162.658 55.7404 162.679 55.7189 162.679 55.6759V53.8719C162.679 53.829 162.701 53.8075 162.744 53.8075H163.259C163.302 53.8075 163.323 53.786 163.323 53.7431V51.9391C163.323 51.8961 163.345 51.8747 163.388 51.8747H163.903C163.946 51.8747 163.968 51.8532 163.968 51.8102V51.2948C163.968 51.2518 163.946 51.2304 163.903 51.2304H162.099C162.056 51.2304 162.035 51.2089 162.035 51.1659V50.0062C162.035 49.9633 162.056 49.9418 162.099 49.9418H163.903C163.946 49.9418 163.968 49.9203 163.968 49.8774V49.3619C163.968 49.319 163.989 49.2975 164.032 49.2975H165.192C165.235 49.2975 165.256 49.276 165.256 49.2331V48.7177C165.256 48.6747 165.278 48.6532 165.321 48.6532H167.125C167.168 48.6532 167.189 48.6747 167.189 48.7177V49.8774C167.189 49.9203 167.168 49.9418 167.125 49.9418H166.609C166.566 49.9418 166.545 49.9633 166.545 50.0062V51.8102C166.545 51.8532 166.523 51.8747 166.48 51.8747H165.965C165.922 51.8747 165.901 51.8961 165.901 51.9391V53.7431C165.901 53.786 165.879 53.8075 165.836 53.8075H165.321C165.278 53.8075 165.256 53.829 165.256 53.8719V55.6759C165.256 55.7189 165.235 55.7404 165.192 55.7404H164.676C164.633 55.7404 164.612 55.7618 164.612 55.8048V57.6088C164.612 57.6517 164.591 57.6732 164.548 57.6732H164.032C163.989 57.6732 163.968 57.6947 163.968 57.7377V59.5417C163.968 59.5846 163.946 59.6061 163.903 59.6061H163.388C163.345 59.6061 163.323 59.6276 163.323 59.6705V61.4745C163.323 61.5175 163.302 61.5389 163.259 61.5389H162.744C162.701 61.5389 162.679 61.5604 162.679 61.6034V63.4074C162.679 63.4503 162.658 63.4718 162.615 63.4718H162.099C162.056 63.4718 162.035 63.4933 162.035 63.5362V65.3402C162.035 65.3832 162.013 65.4047 161.97 65.4047H161.455C161.412 65.4047 161.391 65.4261 161.391 65.4691V67.2731C161.391 67.316 161.369 67.3375 161.326 67.3375H160.811C160.768 67.3375 160.746 67.359 160.746 67.4019V69.8502C160.746 69.8932 160.725 69.9147 160.682 69.9147H160.166C160.123 69.9147 160.102 69.9361 160.102 69.9791V71.7831C160.102 71.826 160.123 71.8475 160.166 71.8475H160.682C160.725 71.8475 160.746 71.826 160.746 71.7831V71.2676C160.746 71.2247 160.768 71.2032 160.811 71.2032H161.326C161.369 71.2032 161.391 71.1817 161.391 71.1388V70.6234C161.391 70.5804 161.412 70.5589 161.455 70.5589H161.97C162.013 70.5589 162.035 70.5804 162.035 70.6234V71.7831C162.035 71.826 162.013 71.8475 161.97 71.8475H161.455C161.412 71.8475 161.391 71.869 161.391 71.9119V72.4274C161.391 72.4703 161.369 72.4918 161.326 72.4918H160.811C160.768 72.4918 160.746 72.5133 160.746 72.5562V73.0716C160.746 73.1146 160.725 73.1361 160.682 73.1361H158.234C158.191 73.1361 158.169 73.1146 158.169 73.0716V72.5562C158.169 72.5133 158.148 72.4918 158.105 72.4918H157.589ZM164.423 73.1361C164.38 73.1361 164.359 73.1146 164.359 73.0716V72.5562C164.359 72.5133 164.337 72.4918 164.294 72.4918H163.779C163.736 72.4918 163.715 72.4703 163.715 72.4274V70.6234C163.715 70.5804 163.736 70.5589 163.779 70.5589H164.294C164.337 70.5589 164.359 70.5375 164.359 70.4945V69.9791C164.359 69.9361 164.38 69.9147 164.423 69.9147H166.227C166.27 69.9147 166.292 69.9361 166.292 69.9791V70.4945C166.292 70.5375 166.313 70.5589 166.356 70.5589H166.872C166.914 70.5589 166.936 70.5804 166.936 70.6234V72.4274C166.936 72.4703 166.914 72.4918 166.872 72.4918H166.356C166.313 72.4918 166.292 72.5133 166.292 72.5562V73.0716C166.292 73.1146 166.27 73.1361 166.227 73.1361H164.423ZM166.292 65.4691C166.292 65.4261 166.313 65.4047 166.356 65.4047H166.872C166.914 65.4047 166.936 65.3832 166.936 65.3402V63.5362C166.936 63.4933 166.957 63.4718 167 63.4718H167.516C167.559 63.4718 167.58 63.4503 167.58 63.4074V59.6705C167.58 59.6276 167.602 59.6061 167.645 59.6061H168.16C168.203 59.6061 168.225 59.5846 168.225 59.5417V57.7377C168.225 57.6947 168.246 57.6732 168.289 57.6732H168.804C168.847 57.6732 168.869 57.6517 168.869 57.6088V53.8719C168.869 53.829 168.89 53.8075 168.933 53.8075H169.449C169.492 53.8075 169.513 53.786 169.513 53.7431V51.9391C169.513 51.8961 169.535 51.8747 169.578 51.8747H170.093C170.136 51.8747 170.157 51.8532 170.157 51.8102V50.0062C170.157 49.9633 170.179 49.9418 170.222 49.9418H170.737C170.78 49.9418 170.802 49.9203 170.802 49.8774V49.3619C170.802 49.319 170.823 49.2975 170.866 49.2975H171.382C171.424 49.2975 171.446 49.276 171.446 49.2331V48.7177C171.446 48.6747 171.467 48.6532 171.51 48.6532H172.67C172.713 48.6532 172.735 48.6747 172.735 48.7177V49.2331C172.735 49.276 172.756 49.2975 172.799 49.2975H173.314C173.357 49.2975 173.379 49.319 173.379 49.3619V51.8102C173.379 51.8532 173.357 51.8747 173.314 51.8747H172.799C172.756 51.8747 172.735 51.8961 172.735 51.9391V52.4545C172.735 52.4975 172.713 52.5189 172.67 52.5189H172.155C172.112 52.5189 172.09 52.5404 172.09 52.5834V53.7431C172.09 53.786 172.069 53.8075 172.026 53.8075H171.51C171.467 53.8075 171.446 53.829 171.446 53.8719V55.6759C171.446 55.7189 171.424 55.7404 171.382 55.7404H170.866C170.823 55.7404 170.802 55.7618 170.802 55.8048V57.6088C170.802 57.6517 170.78 57.6732 170.737 57.6732H170.222C170.179 57.6732 170.157 57.6947 170.157 57.7377V59.5417C170.157 59.5846 170.136 59.6061 170.093 59.6061H169.578C169.535 59.6061 169.513 59.6276 169.513 59.6705V61.4745C169.513 61.5175 169.492 61.5389 169.449 61.5389H168.933C168.89 61.5389 168.869 61.5604 168.869 61.6034V63.4074C168.869 63.4503 168.847 63.4718 168.804 63.4718H168.289C168.246 63.4718 168.225 63.4933 168.225 63.5362V65.3402C168.225 65.3832 168.203 65.4047 168.16 65.4047H167.645C167.602 65.4047 167.58 65.4261 167.58 65.4691V66.6288C167.58 66.6717 167.559 66.6932 167.516 66.6932H166.356C166.313 66.6932 166.292 66.6717 166.292 66.6288V65.4691Z" fill="black"/>
</svg>
